<svg width="71" height="71" viewBox="0 0 71 71" fill="none" xmlns="http://www.w3.org/2000/svg">
<path d="M68.955 47.3333C68.5889 46.7765 68.2228 46.2196 67.7346 45.802L68.711 45.1059C71.0298 43.4353 71.64 40.0941 70.2975 37.449L68.955 35.0824C68.5889 34.5255 68.2228 33.9686 67.7346 33.551L68.711 32.8549C71.0298 31.1843 71.64 27.8431 70.2975 25.198L68.955 22.8314C68.711 22.2745 68.3448 21.8569 67.8566 21.4392L68.2228 21.1608C69.8094 20.0471 70.5416 18.098 70.5416 16.0098C70.5416 15.1745 70.2975 14.3392 69.8094 13.5039L68.4669 11.1373C67.4905 9.32745 65.7819 8.35294 63.9512 8.49216C63.8292 8.49216 63.7071 8.49216 63.7071 8.49216V5.42941C63.7071 2.22745 61.5103 0 58.7033 0H31.2433C29.9009 0 28.3143 0.278431 27.46 1.39216C26.4836 2.50588 25.6293 3.61961 25.6293 5.15098V14.6176C25.6293 14.8961 24.4089 15.1745 23.5546 15.7314C20.6255 17.2627 18.4287 19.6294 16.8421 22.6922C15.8658 24.3627 15.2555 26.1725 14.8894 28.2608C14.6453 27.9824 14.4012 27.8431 14.1571 27.8431H3.90542C1.83066 27.8431 0 30.0706 0 32.298V67.5196C0 69.7471 1.83066 71 3.90542 71H14.1571C15.9878 71 17.4523 69.4686 17.6964 67.5196C19.283 67.9373 20.6255 68.2157 21.968 68.2157H22.09C23.6766 68.2157 25.0191 68.2157 26.2395 67.5196C26.3616 67.3804 26.6057 67.5196 26.7277 67.3804C27.2159 68.3549 27.9482 69.4686 28.9245 70.1647C29.6568 70.5824 30.389 71 31.3654 71H58.7033C61.5103 71 63.463 68.0765 63.463 65.0137V61.1157L68.5889 57.4961C70.1755 56.3824 71.0298 54.4333 70.9078 52.3451C70.9078 51.5098 70.6637 50.6745 70.1755 49.8392L68.955 47.3333ZM3.66133 32.298C3.66133 32.0196 3.66133 32.0196 3.90542 32.0196H14.1571C14.4012 32.0196 14.6453 32.0196 14.6453 32.298V67.5196C14.6453 67.798 14.4012 68.2157 14.1571 68.2157H3.90542C3.66133 68.2157 3.66133 67.798 3.66133 67.5196V32.298ZM18.3066 33.4118V32.5765C18.3066 26.5902 20.8696 21.5784 25.5073 19.0725L25.8734 18.7941C26.7277 18.3765 27.46 18.098 28.1922 17.9588C29.6568 17.6804 30.7552 18.098 31.4874 19.0725C32.2197 20.3255 32.2197 21.9961 31.8536 22.6922C31.3654 23.9451 31.1213 24.502 29.2906 26.1725C26.6057 28.5392 25.3852 31.8804 25.9954 35.3608C26.3616 37.8667 27.46 39.6765 27.582 39.8157C30.267 44.1314 30.8772 49.1431 29.5347 54.9902C28.4363 59.4451 26.6057 62.6471 26.6057 62.7863L26.4836 63.0647C26.3616 63.2039 26.2395 63.9 25.2632 64.4569C24.0427 65.1529 22.09 65.5706 18.4287 64.3176V33.4118H18.3066ZM31.2433 2.78431H58.5813C59.3135 2.78431 59.9238 4.17647 60.2899 4.17647H29.5347C29.9009 4.17647 30.5111 2.78431 31.2433 2.78431ZM61.0222 8.35294V10.302L55.4081 14.0608C53.8215 15.1745 52.8452 17.1235 52.9672 19.2118C52.9672 20.0471 53.2113 20.8824 53.6995 21.7176L54.9199 24.0843C55.164 24.6412 55.5302 25.0588 56.0183 25.4765L55.6522 25.7549C54.0656 26.8686 53.2113 28.8176 53.3334 30.9059C53.3334 31.7412 53.5775 32.5765 54.0656 33.4118L55.4081 35.7784C55.7743 36.3353 56.1404 36.8922 56.6286 37.3098L55.6522 38.0059C54.0656 39.1196 53.3334 41.0686 53.3334 43.1569C53.3334 43.9922 53.5775 44.8274 54.0656 45.6627L55.4081 48.0294C55.7743 48.5863 56.1404 49.1431 56.6286 49.5608L55.6522 50.2569C54.0656 51.3706 53.3334 53.3196 53.3334 55.4078C53.3334 56.2431 53.5775 57.0784 54.0656 57.9137L55.4081 60.5588C55.7743 61.1157 56.1404 60.9765 56.6286 62.3686H30.6331C31.2433 59.5843 32.0977 58.4706 32.5858 56.1039C33.3181 53.0412 33.5622 49.9784 33.3181 47.1941C33.1961 45.1059 32.5858 43.0176 31.6095 40.7902L30.267 37.5882L30.1449 37.3098C30.1449 37.3098 29.2906 36.0569 29.0465 34.3863C28.6804 32.1588 29.4127 30.349 31.1213 28.8176C33.3181 26.8686 33.9283 25.7549 34.6606 24.0843C35.5149 22.2745 35.5149 19.0725 34.0504 16.5667C33.4401 15.4529 32.4638 14.7569 31.3654 14.3392C30.7552 14.0608 30.5111 13.9216 29.2906 13.9216V8.35294H61.0222ZM65.6598 13.0863L67.0023 15.4529C67.2464 15.8706 67.2464 16.4275 67.2464 16.8451C67.1244 17.2627 66.8803 17.6804 66.5142 17.9588L62.6087 20.7431C62.4867 20.8824 62.3647 20.8824 62.2426 21.0216L59.8017 22.8314C59.4356 22.9706 59.0695 23.1098 58.7033 22.9706C58.3372 22.8314 57.9711 22.5529 57.727 22.1353L56.3845 19.7686C56.1404 19.351 56.1404 18.7941 56.1404 18.3765C56.2624 17.9588 56.5065 17.5412 56.8727 17.2627L63.463 12.5294C63.8292 12.251 64.1953 12.251 64.6835 12.251C65.1717 12.3902 65.4158 12.6686 65.6598 13.0863ZM64.8055 23.9451C64.9276 23.9451 65.0496 23.9451 65.1717 23.9451C65.5378 24.0843 65.9039 24.3627 66.148 24.7804L67.4905 27.1471C67.9787 27.9824 67.7346 29.0961 67.0023 29.6529L60.2899 34.3863C59.9238 34.6647 59.5576 34.6647 59.0695 34.6647C58.7033 34.5255 58.3372 34.2471 58.0931 33.8294L56.7506 31.4627C56.5065 31.0451 56.5065 30.4882 56.5065 30.0706C56.6286 29.6529 56.8727 29.2353 57.2388 28.9569L61.1442 26.1725C61.2662 26.0333 61.3883 26.0333 61.5103 25.8941L64.0733 24.0843C64.3174 23.9451 64.5614 23.9451 64.8055 23.9451ZM60.2899 46.7765C59.9238 47.0549 59.5576 47.0549 59.0695 47.0549C58.7033 46.9157 58.3372 46.6373 58.0931 46.2196L56.7506 43.8529C56.5065 43.4353 56.5065 42.8784 56.5065 42.4608C56.6286 42.0431 56.8727 41.6255 57.2388 41.3471L63.9512 36.6137C64.3174 36.3353 64.6835 36.3353 65.1717 36.3353C65.5378 36.4745 65.9039 36.7529 66.148 37.1706L67.4905 39.5373C67.9787 40.3726 67.7346 41.4863 67.0023 42.0431L60.2899 46.7765ZM60.2899 65.4314C60.0458 66.8235 59.4356 66.8235 58.5813 66.8235H31.2433C30.5111 66.8235 29.9009 66.8235 29.5347 65.4314H60.2899ZM60.2899 59.0275C59.9238 59.3059 59.5576 59.3059 59.0695 59.3059C58.7033 59.1667 58.3372 58.8882 58.0931 58.4706L56.7506 56.1039C56.5065 55.6863 56.5065 55.1294 56.5065 54.7118C56.6286 54.2941 56.8727 53.8765 57.2388 53.598L63.9512 48.8647C64.1953 48.7255 64.5614 48.5863 64.8055 48.5863C64.9276 48.5863 65.0496 48.5863 65.1717 48.5863C65.5378 48.7255 65.9039 49.0039 66.148 49.4216L67.4905 51.7882C67.7346 52.2059 67.7346 52.7627 67.7346 53.1804C67.6126 53.598 67.3685 54.0157 67.0023 54.2941L60.2899 59.0275Z" fill="#F6C90E"/>
<path d="M8.90925 65.7099C9.15334 65.7099 9.39743 65.7099 9.64152 65.5707C10.7399 65.2922 11.5942 64.1785 11.9604 62.9256C12.2044 61.6726 11.9604 60.4197 11.106 59.4452C10.3738 58.6099 9.15334 58.1922 8.05494 58.4707C7.07859 58.8883 6.10223 59.8628 5.85814 61.255C5.61405 62.5079 5.85814 63.7609 6.71245 64.7354C7.32267 65.2922 8.05494 65.7099 8.90925 65.7099ZM7.81085 62.0903C7.81085 61.3942 8.29903 60.8373 8.90925 60.8373C9.51947 60.8373 10.0076 61.3942 10.0076 62.0903C10.0076 62.7864 9.51947 63.3432 8.90925 63.3432C8.29903 63.3432 7.81085 62.7864 7.81085 62.0903Z" fill="#F6C90E"/>
</svg>
